<svg width="36" height="34" viewBox="0 0 36 34" fill="none" xmlns="http://www.w3.org/2000/svg">
<path d="M17.9999 8.66663V32" stroke="#0657F2" stroke-width="2.5" stroke-linecap="round" stroke-linejoin="round"/>
<path d="M24.3999 17H27.5999" stroke="#0657F2" stroke-width="2.5" stroke-linecap="round" stroke-linejoin="round"/>
<path d="M24.3999 10.3334H27.5999" stroke="#0657F2" stroke-width="2.5" stroke-linecap="round" stroke-linejoin="round"/>
<path d="M3.6 27C3.17565 27 2.76869 26.8244 2.46863 26.5118C2.16857 26.1993 2 25.7754 2 25.3333V3.66667C2 3.22464 2.16857 2.80072 2.46863 2.48816C2.76869 2.17559 3.17565 2 3.6 2H11.6C13.2974 2 14.9253 2.70238 16.1255 3.95262C17.3257 5.20286 18 6.89856 18 8.66667C18 6.89856 18.6743 5.20286 19.8745 3.95262C21.0747 2.70238 22.7026 2 24.4 2H32.4C32.8243 2 33.2313 2.17559 33.5314 2.48816C33.8314 2.80072 34 3.22464 34 3.66667V25.3333C34 25.7754 33.8314 26.1993 33.5314 26.5118C33.2313 26.8244 32.8243 27 32.4 27H22.8C21.527 27 20.3061 27.5268 19.4059 28.4645C18.5057 29.4021 18 30.6739 18 32C18 30.6739 17.4943 29.4021 16.5941 28.4645C15.6939 27.5268 14.473 27 13.2 27H3.6Z" stroke="#0657F2" stroke-width="2.5" stroke-linecap="round" stroke-linejoin="round"/>
<path d="M8.3999 17H11.5999" stroke="#0657F2" stroke-width="2.5" stroke-linecap="round" stroke-linejoin="round"/>
<path d="M8.3999 10.3334H11.5999" stroke="#0657F2" stroke-width="2.5" stroke-linecap="round" stroke-linejoin="round"/>
</svg>
