<svg width="50" height="50" viewBox="0 0 50 50" fill="none" xmlns="http://www.w3.org/2000/svg">
<path d="M14.5647 37.7232C14.4159 37.8906 14.2299 37.8627 14.0067 37.6395C13.7649 37.4349 13.7277 37.2582 13.8951 37.1094C14.0439 36.9419 14.2299 36.9698 14.4531 37.1931C14.6763 37.3977 14.7135 37.5744 14.5647 37.7232ZM13.3928 36.0212C13.5603 36.2444 13.5603 36.4211 13.3928 36.5513C13.244 36.6629 13.0859 36.5978 12.9185 36.356C12.7511 36.1142 12.7511 35.9468 12.9185 35.8538C13.0859 35.7236 13.244 35.7794 13.3928 36.0212ZM11.6908 34.3471C11.5978 34.4773 11.4769 34.4959 11.3281 34.4029C11.1421 34.3099 11.077 34.1983 11.1328 34.0681C11.1886 33.9751 11.3095 33.9565 11.4955 34.0123C11.6815 34.1053 11.7466 34.2169 11.6908 34.3471ZM12.5558 35.2957C12.4442 35.4259 12.2954 35.398 12.1094 35.212C11.9419 35.0074 11.9233 34.8586 12.0536 34.7656C12.1652 34.654 12.314 34.6819 12.5 34.8493C12.6674 35.0539 12.686 35.2027 12.5558 35.2957ZM16.1551 38.4207C16.0807 38.644 15.904 38.6998 15.625 38.5882C15.3088 38.5137 15.1879 38.3742 15.2623 38.1696C15.3367 37.965 15.5134 37.8999 15.7924 37.9743C16.09 38.0673 16.2109 38.2161 16.1551 38.4207ZM17.9129 38.5602C17.9129 38.7649 17.7641 38.8672 17.4665 38.8672C17.1503 38.9044 16.9922 38.8021 16.9922 38.5602C16.9922 38.3556 17.141 38.2533 17.4386 38.2533C17.7548 38.2161 17.9129 38.3184 17.9129 38.5602ZM19.5312 38.2812C19.5684 38.4672 19.4382 38.5975 19.1406 38.6719C18.843 38.7463 18.6756 38.6719 18.6384 38.4486C18.6012 38.2254 18.7314 38.0859 19.029 38.0301C19.3266 37.9929 19.494 38.0766 19.5312 38.2812ZM46.4286 11.6071V38.3928C46.4286 40.6064 45.6427 42.4991 44.0709 44.0709C42.4991 45.6427 40.6064 46.4286 38.3928 46.4286H32.1428C31.8452 46.4286 31.6174 46.4193 31.4592 46.4007C31.3011 46.382 31.1198 46.3355 30.9152 46.2611C30.7105 46.1867 30.5617 46.0519 30.4687 45.8566C30.3757 45.6613 30.3292 45.4055 30.3292 45.0893V38.4207C30.3292 36.6164 29.8456 35.2957 28.8783 34.4587C29.9386 34.3471 30.8919 34.1797 31.7383 33.9565C32.5846 33.7332 33.4589 33.3705 34.361 32.8683C35.2632 32.3661 36.0165 31.7476 36.6211 31.0128C37.2256 30.2781 37.7185 29.3015 38.0999 28.0831C38.4812 26.8648 38.6719 25.465 38.6719 23.8839C38.6719 21.6332 37.9371 19.7172 36.4676 18.1361C37.1559 16.4434 37.0815 14.5461 36.2444 12.4442C35.7236 12.2768 34.9702 12.3791 33.9844 12.7511C32.9985 13.1231 32.1428 13.5323 31.4174 13.9788L30.3571 14.6484C28.6272 14.1648 26.8415 13.923 25 13.923C23.1585 13.923 21.3727 14.1648 19.6428 14.6484C19.3452 14.4438 18.9499 14.1927 18.457 13.8951C17.9641 13.5975 17.1875 13.2394 16.1272 12.8209C15.0669 12.4023 14.2671 12.2768 13.7277 12.4442C12.9092 14.5461 12.8441 16.4434 13.5323 18.1361C12.0629 19.7172 11.3281 21.6332 11.3281 23.8839C11.3281 25.465 11.5188 26.8601 11.9001 28.0692C12.2814 29.2783 12.7697 30.2548 13.3649 30.9989C13.9602 31.7429 14.7089 32.3661 15.611 32.8683C16.5132 33.3705 17.3874 33.7332 18.2338 33.9565C19.0802 34.1797 20.0335 34.3471 21.0937 34.4587C20.3497 35.1283 19.894 36.0863 19.7265 37.3326C19.3359 37.5186 18.9174 37.6581 18.471 37.7511C18.0245 37.8441 17.4944 37.8906 16.8806 37.8906C16.2667 37.8906 15.6575 37.6906 15.053 37.2907C14.4485 36.8908 13.9323 36.3095 13.5044 35.5469C13.151 34.9516 12.6999 34.468 12.1512 34.096C11.6025 33.7239 11.1421 33.5007 10.7701 33.4263L10.212 33.3426C9.82141 33.3426 9.55169 33.3845 9.40288 33.4682C9.25407 33.5519 9.20757 33.6588 9.26338 33.789C9.31918 33.9193 9.40288 34.0495 9.51449 34.1797C9.6261 34.3099 9.74701 34.4215 9.87721 34.5145L10.0725 34.654C10.4818 34.84 10.8863 35.1934 11.2863 35.7143C11.6862 36.2351 11.9791 36.7094 12.1652 37.1373L12.4442 37.779C12.686 38.4858 13.0952 39.0578 13.6719 39.495C14.2485 39.9321 14.8716 40.2111 15.5413 40.332C16.2109 40.4529 16.8573 40.518 17.4805 40.5273C18.1036 40.5366 18.6198 40.5041 19.029 40.4297L19.6707 40.3181C19.6707 41.0249 19.6754 41.9829 19.6847 43.1919C19.694 44.401 19.6986 45.0335 19.6986 45.0893C19.6986 45.4985 19.5963 45.8101 19.3917 46.024C19.1871 46.2379 18.9825 46.3588 18.7779 46.3867C18.5733 46.4146 18.2664 46.4286 17.8571 46.4286H11.6071C9.39358 46.4286 7.50091 45.6427 5.92911 44.0709C4.35731 42.4991 3.57141 40.6064 3.57141 38.3928V11.6071C3.57141 9.39358 4.35731 7.50091 5.92911 5.92911C7.50091 4.35731 9.39358 3.57141 11.6071 3.57141H38.3928C40.6064 3.57141 42.4991 4.35731 44.0709 5.92911C45.6427 7.50091 46.4286 9.39358 46.4286 11.6071Z" fill="#0657F2"/>
</svg>
