<svg width="50" height="50" viewBox="0 0 50 50" fill="none" xmlns="http://www.w3.org/2000/svg">
<path d="M14.5646 37.7231C14.4158 37.8905 14.2298 37.8626 14.0066 37.6394C13.7647 37.4348 13.7275 37.258 13.8949 37.1092C14.0438 36.9418 14.2298 36.9697 14.453 37.1929C14.6762 37.3976 14.7134 37.5743 14.5646 37.7231ZM13.3927 36.0211C13.5601 36.2443 13.5601 36.421 13.3927 36.5512C13.2439 36.6628 13.0858 36.5977 12.9184 36.3559C12.751 36.1141 12.751 35.9467 12.9184 35.8537C13.0858 35.7234 13.2439 35.7793 13.3927 36.0211ZM11.6907 34.347C11.5977 34.4772 11.4768 34.4958 11.328 34.4028C11.142 34.3098 11.0769 34.1981 11.1327 34.0679C11.1885 33.9749 11.3094 33.9563 11.4954 34.0121C11.6814 34.1051 11.7465 34.2167 11.6907 34.347ZM12.5557 35.2956C12.4441 35.4258 12.2952 35.3979 12.1092 35.2119C11.9418 35.0073 11.9232 34.8585 12.0534 34.7655C12.165 34.6539 12.3138 34.6818 12.4999 34.8492C12.6673 35.0538 12.6859 35.2026 12.5557 35.2956ZM16.155 38.4206C16.0806 38.6438 15.9039 38.6996 15.6249 38.588C15.3086 38.5136 15.1877 38.3741 15.2621 38.1695C15.3365 37.9649 15.5133 37.8998 15.7923 37.9742C16.0899 38.0672 16.2108 38.216 16.155 38.4206ZM17.9128 38.5601C17.9128 38.7647 17.764 38.867 17.4664 38.867C17.1502 38.9043 16.992 38.8019 16.992 38.5601C16.992 38.3555 17.1409 38.2532 17.4385 38.2532C17.7547 38.216 17.9128 38.3183 17.9128 38.5601ZM19.5311 38.2811C19.5683 38.4671 19.4381 38.5973 19.1405 38.6717C18.8429 38.7461 18.6755 38.6717 18.6383 38.4485C18.6011 38.2253 18.7313 38.0858 19.0289 38.03C19.3265 37.9928 19.4939 38.0765 19.5311 38.2811ZM46.4284 11.607V38.3927C46.4284 40.6063 45.6425 42.4989 44.0707 44.0707C42.4989 45.6425 40.6063 46.4284 38.3927 46.4284H32.1427C31.8451 46.4284 31.6172 46.4191 31.4591 46.4005C31.301 46.3819 31.1197 46.3354 30.915 46.261C30.7104 46.1866 30.5616 46.0518 30.4686 45.8564C30.3756 45.6611 30.3291 45.4054 30.3291 45.0891V38.4206C30.3291 36.6163 29.8455 35.2956 28.8782 34.4586C29.9385 34.347 30.8918 34.1795 31.7381 33.9563C32.5845 33.7331 33.4588 33.3704 34.3609 32.8682C35.2631 32.3659 36.0164 31.7474 36.621 31.0127C37.2255 30.2779 37.7184 29.3014 38.0997 28.083C38.4811 26.8646 38.6717 25.4649 38.6717 23.8838C38.6717 21.633 37.937 19.7171 36.4675 18.136C37.1557 16.4433 37.0813 14.546 36.2443 12.4441C35.7234 12.2766 34.9701 12.379 33.9842 12.751C32.9984 13.123 32.1427 13.5322 31.4173 13.9787L30.357 14.6483C28.6271 14.1647 26.8414 13.9229 24.9999 13.9229C23.1583 13.9229 21.3726 14.1647 19.6427 14.6483C19.3451 14.4437 18.9498 14.1926 18.4569 13.8949C17.964 13.5973 17.1874 13.2393 16.1271 12.8207C15.0668 12.4022 14.267 12.2766 13.7275 12.4441C12.9091 14.546 12.844 16.4433 13.5322 18.136C12.0627 19.7171 11.328 21.633 11.328 23.8838C11.328 25.4649 11.5186 26.86 11.9 28.0691C12.2813 29.2781 12.7696 30.2547 13.3648 30.9987C13.9601 31.7428 14.7088 32.3659 15.6109 32.8682C16.5131 33.3704 17.3873 33.7331 18.2337 33.9563C19.08 34.1795 20.0333 34.347 21.0936 34.4586C20.3496 35.1282 19.8938 36.0862 19.7264 37.3325C19.3358 37.5185 18.9173 37.658 18.4708 37.751C18.0244 37.844 17.4943 37.8905 16.8804 37.8905C16.2666 37.8905 15.6574 37.6905 15.0529 37.2906C14.4483 36.8907 13.9322 36.3094 13.5043 35.5467C13.1509 34.9515 12.6998 34.4679 12.1511 34.0958C11.6024 33.7238 11.142 33.5006 10.7699 33.4262L10.2119 33.3425C9.82129 33.3425 9.55157 33.3843 9.40276 33.4681C9.25395 33.5518 9.20745 33.6587 9.26325 33.7889C9.31906 33.9191 9.40276 34.0493 9.51437 34.1795C9.62598 34.3098 9.74688 34.4214 9.87709 34.5144L10.0724 34.6539C10.4816 34.8399 10.8862 35.1933 11.2861 35.7141C11.6861 36.235 11.979 36.7093 12.165 37.1371L12.4441 37.7789C12.6859 38.4857 13.0951 39.0577 13.6717 39.4948C14.2484 39.932 14.8715 40.211 15.5412 40.3319C16.2108 40.4528 16.8572 40.5179 17.4803 40.5272C18.1035 40.5365 18.6197 40.504 19.0289 40.4295L19.6706 40.3179C19.6706 41.0248 19.6753 41.9827 19.6846 43.1918C19.6939 44.4009 19.6985 45.0333 19.6985 45.0891C19.6985 45.4984 19.5962 45.8099 19.3916 46.0239C19.187 46.2378 18.9824 46.3587 18.7778 46.3866C18.5731 46.4145 18.2662 46.4284 17.857 46.4284H11.607C9.39346 46.4284 7.50079 45.6425 5.92899 44.0707C4.35719 42.4989 3.57129 40.6063 3.57129 38.3927V11.607C3.57129 9.39346 4.35719 7.50079 5.92899 5.92899C7.50079 4.35719 9.39346 3.57129 11.607 3.57129H38.3927C40.6063 3.57129 42.4989 4.35719 44.0707 5.92899C45.6425 7.50079 46.4284 9.39346 46.4284 11.607Z" fill="white"/>
</svg>
