<svg width="20" height="21" viewBox="0 0 20 21" fill="none" xmlns="http://www.w3.org/2000/svg">
<path d="M18.7258 4.37269C19.215 2.80374 18.4812 1.08885 18.4405 0.979384C18.3182 0.723975 18.0328 0.505052 17.7067 0.505052C17.6251 0.505052 15.7499 0.359103 13.8746 1.63615C12.407 1.38074 10.7355 1.30777 10.654 1.30777C10.6132 1.30777 10.6132 1.30777 10.5725 1.30777C10.4909 1.30777 8.81948 1.38074 7.35187 1.63615C5.47659 0.359103 3.60131 0.505052 3.51978 0.505052C3.19364 0.541539 2.90827 0.723975 2.78597 0.979384C2.7452 1.05236 1.97063 2.80374 2.5006 4.37269C1.56296 5.54028 0.82916 7.07274 1.48143 9.80927C2.09293 12.2904 4.37588 13.6769 6.74036 14.1512C6.53653 14.6621 6.45499 15.2823 6.37346 15.9391C5.39505 15.9756 4.78355 15.4648 3.92745 14.6621C3.19364 13.9688 2.3783 13.1661 1.03299 12.9107C0.584558 12.8012 0.136122 13.0566 0.0138214 13.4945C-0.0677125 13.9323 0.217656 14.3337 0.706859 14.4066C1.48143 14.5526 2.0114 15.0634 2.66367 15.6837C3.51978 16.4864 4.49818 17.4716 6.25116 17.4716H6.29193C6.29193 18.3108 6.37346 19.1135 6.41423 19.7703C6.45499 20.2081 6.86266 20.5 7.35187 20.4635C7.84107 20.427 8.1672 20.0622 8.12644 19.6243C7.88184 17.1432 8.08567 14.5161 8.53411 14.1512C8.86024 13.9688 9.06408 13.6404 8.94178 13.2755C8.86024 12.9472 8.53411 12.6918 8.12644 12.6918C7.75954 12.6918 3.92745 12.5093 3.19364 9.48089C2.58214 6.99976 3.35671 5.90515 4.17205 5.02946C4.37588 4.81053 4.41665 4.48215 4.29435 4.19025C3.96821 3.56997 4.09051 2.69428 4.25358 2.11049C4.82432 2.18346 5.68042 2.40238 6.5773 3.09564C6.78113 3.27807 7.0665 3.31456 7.35187 3.27807C8.61564 2.98618 10.3279 2.9132 10.6132 2.9132C10.8578 2.9132 12.6108 2.98618 13.8746 3.27807C14.1599 3.35105 14.4453 3.27807 14.6491 3.09564C15.546 2.40238 16.4429 2.18346 16.9729 2.11049C17.1359 2.65779 17.2582 3.53348 16.9321 4.19025C16.8098 4.44566 16.8506 4.77405 17.0544 5.02946C17.8697 5.90515 18.6035 6.99976 18.0328 9.48089C17.299 12.5093 13.4669 12.6918 13.0185 12.7282C12.6108 12.7282 12.2847 12.9837 12.2031 13.312C12.1216 13.6404 12.2847 14.0053 12.6108 14.1877C13.1 14.5526 13.3038 17.1432 13.0592 19.6608C13.0185 20.0986 13.3854 20.4635 13.8338 20.5C13.8746 20.5 13.8746 20.5 13.9153 20.5C14.3638 20.5 14.7307 20.2081 14.7714 19.8067C14.9345 18.2013 15.0568 15.7202 14.4861 14.1512C16.8506 13.7134 19.1335 12.2904 19.745 9.80927C20.3973 7.07274 19.7042 5.54028 18.7258 4.37269Z" fill="black"/>
</svg>
