<svg width="28" height="25" viewBox="0 0 28 25" fill="none" xmlns="http://www.w3.org/2000/svg">
<path d="M20.8618 7.07437L11.0966 16.4369L6.77812 12.2976C6.63535 12.1643 6.44251 12.0893 6.24134 12.0887C6.04018 12.0882 5.84687 12.1621 5.70325 12.2946C5.55963 12.4271 5.47727 12.6075 5.47398 12.7967C5.47069 12.9859 5.54674 13.1686 5.68568 13.3055L10.5555 17.9753C10.6346 18.0513 10.7307 18.1097 10.8368 18.1465C10.9429 18.1833 11.0563 18.1975 11.1689 18.1881C11.2815 18.1787 11.3905 18.1459 11.4881 18.0921C11.5856 18.0383 11.6692 17.9648 11.7329 17.877C11.7424 17.8693 11.7518 17.8617 11.7606 17.8535L21.9495 8.07967C22.072 7.94082 22.1346 7.76377 22.1249 7.58358C22.1151 7.40338 22.0338 7.23321 21.897 7.10675C21.7602 6.98029 21.5778 6.90679 21.3861 6.90079C21.1944 6.89479 21.0073 6.95674 20.8618 7.07437Z" fill="#0657F2"/>
<path d="M22.0592 0H5.57606C4.23753 0.00134399 2.95423 0.502068 2.00774 1.3923C1.06126 2.28254 0.528895 3.48957 0.527466 4.74855V20.2521C0.529073 21.511 1.06151 22.7178 2.00798 23.6079C2.95445 24.498 4.23764 24.9987 5.57606 25H22.0592C23.3975 24.9985 24.6805 24.4978 25.6269 23.6077C26.5732 22.7176 27.1055 21.5108 27.1071 20.2521V4.74855C27.1057 3.48968 26.5734 2.28274 25.6271 1.39253C24.6808 0.502309 23.3976 0.00151195 22.0592 0ZM25.5768 20.2521C25.5759 21.1293 25.205 21.9703 24.5455 22.5906C23.886 23.2109 22.9919 23.5597 22.0592 23.5606H5.57606C4.64336 23.5597 3.7491 23.2109 3.08952 22.5907C2.42994 21.9704 2.0589 21.1294 2.05783 20.2521V4.74855C2.0589 3.87122 2.42992 3.03011 3.08948 2.40975C3.74904 1.78939 4.6433 1.44042 5.57606 1.43942H22.0592C22.9919 1.44042 23.8861 1.78941 24.5456 2.40979C25.205 3.03017 25.5759 3.87128 25.5768 4.74855V20.2521Z" fill="#0657F2"/>
</svg>
