<svg width="218" height="65" viewBox="0 0 218 65" fill="none" xmlns="http://www.w3.org/2000/svg">
<path d="M92.036 29.364V37.968C92.036 39.3 91.658 40.326 90.902 41.046C90.158 41.766 89.15 42.126 87.878 42.126C86.546 42.126 85.478 41.748 84.674 40.992C83.87 40.236 83.468 39.162 83.468 37.77H86.528C86.528 38.298 86.636 38.7 86.852 38.976C87.068 39.24 87.38 39.372 87.788 39.372C88.16 39.372 88.448 39.252 88.652 39.012C88.856 38.772 88.958 38.424 88.958 37.968V29.364H92.036ZM99.0943 42.144C98.1103 42.144 97.2223 41.934 96.4303 41.514C95.6503 41.094 95.0323 40.494 94.5763 39.714C94.1323 38.934 93.9103 38.022 93.9103 36.978C93.9103 35.946 94.1383 35.04 94.5942 34.26C95.0503 33.468 95.6743 32.862 96.4663 32.442C97.2583 32.022 98.1463 31.812 99.1303 31.812C100.114 31.812 101.002 32.022 101.794 32.442C102.586 32.862 103.21 33.468 103.666 34.26C104.122 35.04 104.35 35.946 104.35 36.978C104.35 38.01 104.116 38.922 103.648 39.714C103.192 40.494 102.562 41.094 101.758 41.514C100.966 41.934 100.078 42.144 99.0943 42.144ZM99.0943 39.48C99.6823 39.48 100.18 39.264 100.588 38.832C101.008 38.4 101.218 37.782 101.218 36.978C101.218 36.174 101.014 35.556 100.606 35.124C100.21 34.692 99.7183 34.476 99.1303 34.476C98.5303 34.476 98.0323 34.692 97.6363 35.124C97.2403 35.544 97.0423 36.162 97.0423 36.978C97.0423 37.782 97.2343 38.4 97.6183 38.832C98.0143 39.264 98.5063 39.48 99.0943 39.48ZM112.157 31.848C113.309 31.848 114.233 32.232 114.929 33C115.625 33.756 115.973 34.8 115.973 36.132V42H112.913V36.546C112.913 35.874 112.739 35.352 112.391 34.98C112.043 34.608 111.575 34.422 110.987 34.422C110.399 34.422 109.931 34.608 109.583 34.98C109.235 35.352 109.061 35.874 109.061 36.546V42H105.983V28.68H109.061V33.306C109.373 32.862 109.799 32.508 110.339 32.244C110.879 31.98 111.485 31.848 112.157 31.848ZM124.232 31.848C125.408 31.848 126.344 32.232 127.04 33C127.748 33.756 128.102 34.8 128.102 36.132V42H125.042V36.546C125.042 35.874 124.868 35.352 124.52 34.98C124.172 34.608 123.704 34.422 123.116 34.422C122.528 34.422 122.06 34.608 121.712 34.98C121.364 35.352 121.19 35.874 121.19 36.546V42H118.112V31.956H121.19V33.288C121.502 32.844 121.922 32.496 122.45 32.244C122.978 31.98 123.572 31.848 124.232 31.848ZM129.629 36.96C129.629 35.928 129.821 35.022 130.205 34.242C130.601 33.462 131.135 32.862 131.807 32.442C132.479 32.022 133.229 31.812 134.057 31.812C134.765 31.812 135.383 31.956 135.911 32.244C136.451 32.532 136.865 32.91 137.153 33.378V31.956H140.231V42H137.153V40.578C136.853 41.046 136.433 41.424 135.893 41.712C135.365 42 134.747 42.144 134.039 42.144C133.223 42.144 132.479 41.934 131.807 41.514C131.135 41.082 130.601 40.476 130.205 39.696C129.821 38.904 129.629 37.992 129.629 36.96ZM137.153 36.978C137.153 36.21 136.937 35.604 136.505 35.16C136.085 34.716 135.569 34.494 134.957 34.494C134.345 34.494 133.823 34.716 133.391 35.16C132.971 35.592 132.761 36.192 132.761 36.96C132.761 37.728 132.971 38.34 133.391 38.796C133.823 39.24 134.345 39.462 134.957 39.462C135.569 39.462 136.085 39.24 136.505 38.796C136.937 38.352 137.153 37.746 137.153 36.978ZM148.056 39.39V42H146.49C145.374 42 144.504 41.73 143.88 41.19C143.256 40.638 142.944 39.744 142.944 38.508V34.512H141.72V31.956H142.944V29.508H146.022V31.956H148.038V34.512H146.022V38.544C146.022 38.844 146.094 39.06 146.238 39.192C146.382 39.324 146.622 39.39 146.958 39.39H148.056ZM166.12 33.378C166.408 32.91 166.822 32.532 167.362 32.244C167.902 31.956 168.52 31.812 169.216 31.812C170.044 31.812 170.794 32.022 171.466 32.442C172.138 32.862 172.666 33.462 173.05 34.242C173.446 35.022 173.644 35.928 173.644 36.96C173.644 37.992 173.446 38.904 173.05 39.696C172.666 40.476 172.138 41.082 171.466 41.514C170.794 41.934 170.044 42.144 169.216 42.144C168.508 42.144 167.89 42.006 167.362 41.73C166.834 41.442 166.42 41.064 166.12 40.596V42H163.042V28.68H166.12V33.378ZM170.512 36.96C170.512 36.192 170.296 35.592 169.864 35.16C169.444 34.716 168.922 34.494 168.298 34.494C167.686 34.494 167.164 34.716 166.732 35.16C166.312 35.604 166.102 36.21 166.102 36.978C166.102 37.746 166.312 38.352 166.732 38.796C167.164 39.24 167.686 39.462 168.298 39.462C168.91 39.462 169.432 39.24 169.864 38.796C170.296 38.34 170.512 37.728 170.512 36.96ZM174.647 36.96C174.647 35.928 174.839 35.022 175.223 34.242C175.619 33.462 176.153 32.862 176.825 32.442C177.497 32.022 178.247 31.812 179.075 31.812C179.735 31.812 180.335 31.95 180.875 32.226C181.427 32.502 181.859 32.874 182.171 33.342V28.68H185.249V42H182.171V40.56C181.883 41.04 181.469 41.424 180.929 41.712C180.401 42 179.783 42.144 179.075 42.144C178.247 42.144 177.497 41.934 176.825 41.514C176.153 41.082 175.619 40.476 175.223 39.696C174.839 38.904 174.647 37.992 174.647 36.96ZM182.171 36.978C182.171 36.21 181.955 35.604 181.523 35.16C181.103 34.716 180.587 34.494 179.975 34.494C179.363 34.494 178.841 34.716 178.409 35.16C177.989 35.592 177.779 36.192 177.779 36.96C177.779 37.728 177.989 38.34 178.409 38.796C178.841 39.24 179.363 39.462 179.975 39.462C180.587 39.462 181.103 39.24 181.523 38.796C181.955 38.352 182.171 37.746 182.171 36.978ZM186.863 36.96C186.863 35.928 187.055 35.022 187.439 34.242C187.835 33.462 188.369 32.862 189.041 32.442C189.713 32.022 190.463 31.812 191.291 31.812C191.999 31.812 192.617 31.956 193.145 32.244C193.685 32.532 194.099 32.91 194.387 33.378V31.956H197.465V42H194.387V40.578C194.087 41.046 193.667 41.424 193.127 41.712C192.599 42 191.981 42.144 191.273 42.144C190.457 42.144 189.713 41.934 189.041 41.514C188.369 41.082 187.835 40.476 187.439 39.696C187.055 38.904 186.863 37.992 186.863 36.96ZM194.387 36.978C194.387 36.21 194.171 35.604 193.739 35.16C193.319 34.716 192.803 34.494 192.191 34.494C191.579 34.494 191.057 34.716 190.625 35.16C190.205 35.592 189.995 36.192 189.995 36.96C189.995 37.728 190.205 38.34 190.625 38.796C191.057 39.24 191.579 39.462 192.191 39.462C192.803 39.462 193.319 39.24 193.739 38.796C194.171 38.352 194.387 37.746 194.387 36.978ZM202.77 28.68V42H199.692V28.68H202.77ZM204.389 36.96C204.389 35.928 204.581 35.022 204.965 34.242C205.361 33.462 205.895 32.862 206.567 32.442C207.239 32.022 207.989 31.812 208.817 31.812C209.525 31.812 210.143 31.956 210.671 32.244C211.211 32.532 211.625 32.91 211.913 33.378V31.956H214.991V42H211.913V40.578C211.613 41.046 211.193 41.424 210.653 41.712C210.125 42 209.507 42.144 208.799 42.144C207.983 42.144 207.239 41.934 206.567 41.514C205.895 41.082 205.361 40.476 204.965 39.696C204.581 38.904 204.389 37.992 204.389 36.96ZM211.913 36.978C211.913 36.21 211.697 35.604 211.265 35.16C210.845 34.716 210.329 34.494 209.717 34.494C209.105 34.494 208.583 34.716 208.151 35.16C207.731 35.592 207.521 36.192 207.521 36.96C207.521 37.728 207.731 38.34 208.151 38.796C208.583 39.24 209.105 39.462 209.717 39.462C210.329 39.462 210.845 39.24 211.265 38.796C211.697 38.352 211.913 37.746 211.913 36.978Z" fill="black"/>
<path d="M157.636 39.768H152.92L152.164 42H148.942L153.514 29.364H157.078L161.65 42H158.392L157.636 39.768ZM156.844 37.392L155.278 32.766L153.73 37.392H156.844Z" fill="#0657F2"/>
<path d="M36.0388 19.3765C38.67 19.5946 41.4541 20.9398 43.2872 22.8787L55.1887 35.467C56.9425 37.322 57.5606 39.4409 56.8162 41.0461L51.5088 52.4901C50.7643 54.0953 48.767 54.9505 46.2497 54.7418L29.1669 53.3256C26.5357 53.1074 23.7517 51.7623 21.9186 49.8233L10.0171 37.2351C8.26325 35.3801 7.64516 33.2612 8.38961 31.656L13.697 20.212C14.4414 18.6068 16.4388 17.7516 18.9561 17.9603L36.0388 19.3765Z" fill="url(#paint0_linear_785_9)"/>
<g filter="url(#filter0_b_785_9)">
<path d="M45.8486 11.6897C48.47 11.8996 51.2553 13.2455 53.0994 15.1937L65.0692 27.8385C66.8325 29.7012 67.4686 31.8337 66.7442 33.4537L61.5749 45.0149C60.8506 46.635 58.8723 47.5041 56.3659 47.3035L39.3513 45.9416C36.7298 45.7317 33.9446 44.3858 32.1004 42.4376L20.1307 29.7928C18.3674 27.9301 17.7312 25.7976 18.4556 24.1776L23.6249 12.6164C24.3493 10.9963 26.3275 10.1272 28.834 10.3278L45.8486 11.6897Z" fill="white" fill-opacity="0.25"/>
<path d="M45.9066 11.8677C48.4462 12.071 51.1446 13.375 52.9312 15.2624L64.9009 27.9071C66.6092 29.7117 67.2255 31.7777 66.5237 33.3472L61.3544 44.9083C60.6527 46.4778 58.7361 47.3199 56.3079 47.1255L39.2933 45.7636C36.7536 45.5603 34.0553 44.2563 32.2687 42.3689L20.2989 29.7242C18.5906 27.9196 17.9744 25.8536 18.6761 24.2841L23.8454 12.723C24.5472 11.1535 26.4637 10.3114 28.892 10.5058L45.9066 11.8677Z" stroke="black" stroke-opacity="0.3" stroke-width="0.436817"/>
</g>
<defs>
<filter id="filter0_b_785_9" x="15.1617" y="7.29935" width="54.8763" height="43.0326" filterUnits="userSpaceOnUse" color-interpolation-filters="sRGB">
<feFlood flood-opacity="0" result="BackgroundImageFix"/>
<feGaussianBlur in="BackgroundImageFix" stdDeviation="1.5"/>
<feComposite in2="SourceAlpha" operator="in" result="effect1_backgroundBlur_785_9"/>
<feBlend mode="normal" in="SourceGraphic" in2="effect1_backgroundBlur_785_9" result="shape"/>
</filter>
<linearGradient id="paint0_linear_785_9" x1="40.3109" y1="19.7307" x2="24.3719" y2="52.7187" gradientUnits="userSpaceOnUse">
<stop stop-color="#0657F2"/>
<stop offset="1" stop-color="#0E67ED"/>
</linearGradient>
</defs>
</svg>
