<svg width="561" height="526" viewBox="0 0 561 526" fill="none" xmlns="http://www.w3.org/2000/svg">
<g filter="url(#filter0_d_223_312)">
<path d="M271.182 2.35932C273.133 1.22891 275.539 1.22513 277.493 2.3494L497.743 129.049C499.697 130.173 500.903 132.255 500.907 134.509L501.306 388.601C501.31 390.855 500.11 392.941 498.16 394.071L278.31 521.463C276.359 522.593 273.953 522.597 271.999 521.473L51.7493 394.773C49.7949 393.649 48.5888 391.568 48.5852 389.313L48.1855 135.222C48.1819 132.967 49.3815 130.882 51.3324 129.751L271.182 2.35932Z" fill="#F5F5FF"/>
<path d="M271.864 78.4755C273.816 77.3481 276.222 77.3481 278.175 78.4755L432.54 167.598C434.492 168.726 435.695 170.809 435.695 173.064V351.309C435.695 353.564 434.492 355.647 432.54 356.775L278.175 445.897C276.222 447.025 273.816 447.025 271.864 445.897L117.498 356.775C115.546 355.647 114.343 353.564 114.343 351.309V173.064C114.343 170.809 115.546 168.726 117.498 167.598L271.864 78.4755Z" fill="#EDF1FF"/>
<path d="M271.286 137.614C273.239 136.487 275.644 136.487 277.597 137.614L380.244 196.878C382.197 198.005 383.4 200.088 383.4 202.343V320.87C383.4 323.125 382.197 325.208 380.244 326.336L277.597 385.599C275.644 386.727 273.239 386.727 271.286 385.599L168.638 326.336C166.686 325.208 165.483 323.125 165.483 320.87V202.343C165.483 200.088 166.686 198.005 168.638 196.878L271.286 137.614Z" fill="#E8E9FF"/>
<g filter="url(#filter1_d_223_312)">
<path d="M271.865 206.029C273.817 204.902 276.223 204.902 278.175 206.029L322.076 231.375C324.028 232.502 325.231 234.586 325.231 236.841V287.532C325.231 289.787 324.028 291.87 322.076 292.998L278.175 318.344C276.223 319.471 273.817 319.471 271.865 318.344L227.964 292.998C226.012 291.87 224.809 289.787 224.809 287.532V236.841C224.809 234.586 226.012 232.502 227.964 231.375L271.865 206.029Z" fill="url(#paint0_linear_223_312)"/>
</g>
<g filter="url(#filter2_d_223_312)">
<path d="M358.224 320.372L374.292 329.649V348.202L358.224 357.479L342.157 348.202V329.649L358.224 320.372Z" fill="white"/>
<path d="M359.456 341.245C359.904 342.066 360.53 342.646 361.559 342.646C362.453 342.646 363.035 342.163 363.035 341.486C363.035 340.713 362.453 340.423 361.469 339.94L360.932 339.699C359.367 338.974 358.338 338.104 358.338 336.22C358.338 334.48 359.546 333.128 361.469 333.128C362.856 333.128 363.84 333.659 364.511 335.012L362.856 336.172C362.498 335.447 362.095 335.157 361.469 335.157C360.843 335.157 360.44 335.592 360.44 336.172C360.44 336.848 360.843 337.138 361.782 337.573L362.319 337.814C364.153 338.684 365.182 339.505 365.182 341.486C365.182 343.564 363.661 344.723 361.603 344.723C359.591 344.723 358.293 343.709 357.667 342.356L359.456 341.245ZM351.852 341.438C352.21 342.066 352.478 342.646 353.239 342.646C353.954 342.646 354.402 342.356 354.402 341.196V333.176H356.549V341.1C356.549 343.516 355.252 344.578 353.328 344.578C351.584 344.578 350.599 343.612 350.107 342.453L351.852 341.438Z" fill="#0097EC"/>
</g>
<path d="M117.271 262.186L138.36 274.362V298.713L117.271 310.889L96.1824 298.713V274.362L117.271 262.186Z" fill="white"/>
<path d="M108.577 278.342C113.26 273.796 120.749 273.918 125.286 278.635C125.799 277.951 126.238 277.193 126.555 276.411C128.043 280.957 128.945 284.769 128.604 287.727C128.433 290.219 127.457 292.614 125.847 294.521C121.652 299.506 114.187 300.142 109.211 295.938L109.116 295.853L109.111 295.85C109.095 295.839 109.08 295.828 109.065 295.816C109.019 295.781 108.978 295.742 108.941 295.701L108.928 295.686L108.772 295.547C108.62 295.417 108.468 295.287 108.334 295.139L108.284 295.083C103.747 290.39 103.893 282.887 108.577 278.342ZM110.333 294.252C109.894 293.91 109.26 293.959 108.918 294.399C108.618 294.785 108.62 295.323 108.923 295.68L108.928 295.686L109.116 295.853L109.134 295.866C109.561 296.147 110.134 296.089 110.462 295.692L110.48 295.669C110.821 295.23 110.748 294.594 110.333 294.252ZM126.433 277.633C125.213 280.199 122.188 282.154 119.578 282.765C117.115 283.352 114.968 282.863 112.699 283.743C107.528 285.722 107.625 291.881 110.455 293.274L110.626 293.372C110.626 293.372 112.67 292.965 114.691 292.427L114.864 292.381C115.671 292.163 116.466 291.925 117.115 291.686C120.481 290.439 124.189 287.36 125.408 283.792C124.774 287.507 121.579 291.099 118.383 292.737C116.675 293.617 115.358 293.812 112.553 294.79C112.211 294.912 111.943 295.034 111.943 295.034C111.977 295.029 112.012 295.025 112.046 295.02L112.114 295.011L112.182 295.003C112.801 294.926 113.358 294.887 113.358 294.887C117.334 294.692 123.579 296.012 126.482 292.126C129.458 288.166 127.799 281.763 126.433 277.633Z" fill="#0097EC"/>
<path d="M110.334 294.252C110.748 294.594 110.821 295.23 110.48 295.669C110.138 296.109 109.504 296.158 109.065 295.816C108.626 295.474 108.577 294.839 108.919 294.399C109.26 293.959 109.894 293.91 110.334 294.252ZM126.433 277.633C127.799 281.763 129.458 288.166 126.482 292.126C123.579 296.012 117.335 294.692 113.358 294.887C113.358 294.887 112.802 294.926 112.182 295.003L112.114 295.011C112.058 295.019 112.001 295.026 111.944 295.034C111.944 295.034 112.212 294.912 112.553 294.79C115.359 293.812 116.676 293.617 118.383 292.737C121.579 291.099 124.775 287.507 125.409 283.792C124.189 287.36 120.481 290.439 117.115 291.686C114.798 292.541 110.626 293.372 110.626 293.372L110.456 293.274C107.626 291.881 107.528 285.722 112.7 283.743C114.968 282.863 117.115 283.352 119.579 282.765C122.189 282.154 125.214 280.199 126.433 277.633Z" fill="white"/>
<g filter="url(#filter3_d_223_312)">
<path d="M435.713 206.156L463.832 222.39V254.858L435.713 271.092L407.595 254.858V222.39L435.713 206.156Z" fill="white"/>
<path d="M419.98 227.698L436.46 222.162L453.383 227.6L450.643 248.158L436.46 255.565L422.499 248.257L419.98 227.698Z" fill="#0097EC"/>
<path d="M453.384 227.6L436.461 222.162V255.565L450.644 248.171L453.384 227.6Z" fill="#007BEC"/>
<path d="M436.486 226.062L426.218 247.605L430.054 247.543L432.115 242.684H436.499H436.512H441.327L443.584 247.605L447.251 247.666L436.486 226.062ZM436.512 232.964L439.983 239.805H436.656H436.486H433.459L436.512 232.964Z" fill="white"/>
</g>
<g filter="url(#filter4_d_223_312)">
<path d="M203.287 157.128L220.407 167.013V186.782L203.287 196.666L186.166 186.782V167.013L203.287 157.128Z" fill="white"/>
<path d="M203.288 174.79H206.356L206.568 172.416H203.288V170.097H203.296H209.102L209.046 170.719L208.477 177.109H203.288V174.79Z" fill="#0097EC"/>
<path d="M203.302 180.812L203.292 180.815L200.71 180.117L200.545 178.268H199.29H198.217L198.542 181.909L203.291 183.227L203.302 183.224V180.812Z" fill="#0097EC"/>
<path d="M206.16 177.011L205.881 180.116L203.295 180.813V183.226L208.048 181.909L208.083 181.517L208.486 177.011H206.16Z" fill="#0097EC"/>
<path d="M203.296 170.097V171.538V172.41V172.416H197.703H197.695L197.649 171.895L197.543 170.719L197.487 170.097H203.296Z" fill="#0097EC"/>
<path d="M203.287 174.79V176.231V177.103V177.109H200.745H200.737L200.691 176.588L200.586 175.412L200.53 174.79H203.287Z" fill="#0097EC"/>
</g>
<path d="M50 103L93.3013 128V178L50 203L6.69873 178V128L50 103Z" fill="white"/>
<g clip-path="url(#clip0_223_312)">
<path d="M79.7597 147.747C79.5953 147.618 78.0585 146.473 74.8166 146.473C73.9603 146.477 73.1065 146.549 72.2628 146.69C71.6354 142.447 68.1911 140.454 68.0318 140.361L67.1615 139.865L66.5885 140.68C65.8713 141.775 65.2376 142.906 64.9303 144.175C64.3497 146.597 64.7026 148.871 65.9498 150.816C64.442 151.644 61.8731 151.717 61.3848 151.735H21.6448C20.6 151.736 19.7525 152.57 19.7462 153.6C19.6994 157.056 20.1927 160.623 21.3981 163.869C22.7756 167.434 24.826 170.059 27.4923 171.666C30.48 173.471 35.3346 174.503 40.8381 174.503C43.3236 174.511 45.8053 174.289 48.249 173.84C51.6465 173.224 54.9162 172.053 57.9216 170.374C60.3982 168.959 62.6269 167.159 64.523 165.043C67.6915 161.504 69.5787 157.564 70.9827 154.061C71.1712 154.061 71.3597 154.061 71.5418 154.061C75.0114 154.061 77.144 152.691 78.3203 151.544C79.102 150.812 79.7129 149.92 80.1088 148.932L80.358 148.214L79.7597 147.747Z" fill="#0097EC"/>
<path d="M29.7626 150.47H25.968C25.2698 150.47 24.7031 149.904 24.7031 149.205V145.411C24.7031 144.713 25.2698 144.146 25.968 144.146H29.7626C30.4609 144.146 31.0275 144.713 31.0275 145.411V149.205C31.0275 149.904 30.4609 150.47 29.7626 150.47Z" fill="#0097EC"/>
<path d="M37.3535 150.47H33.5588C32.8606 150.47 32.2939 149.904 32.2939 149.205V145.411C32.2939 144.713 32.8606 144.146 33.5588 144.146H37.3535C38.0517 144.146 38.6183 144.713 38.6183 145.411V149.205C38.6183 149.904 38.0517 150.47 37.3535 150.47Z" fill="#0097EC"/>
<path d="M44.9414 150.47H41.1467C40.4485 150.47 39.8818 149.904 39.8818 149.205V145.411C39.8818 144.713 40.4485 144.146 41.1467 144.146H44.9414C45.6396 144.146 46.2062 144.713 46.2062 145.411V149.205C46.2062 149.904 45.6396 150.47 44.9414 150.47Z" fill="#0097EC"/>
<path d="M52.5302 150.47H48.7356C48.0374 150.47 47.4707 149.904 47.4707 149.205V145.411C47.4707 144.713 48.0374 144.146 48.7356 144.146H52.5302C53.2284 144.146 53.7951 144.713 53.7951 145.411V149.205C53.7951 149.904 53.2284 150.47 52.5302 150.47Z" fill="#0097EC"/>
<path d="M37.3535 142.881H33.5588C32.8606 142.881 32.2939 142.314 32.2939 141.616V137.821C32.2939 137.123 32.8606 136.557 33.5588 136.557H37.3535C38.0517 136.557 38.6183 137.123 38.6183 137.821V141.616C38.6183 142.314 38.0517 142.881 37.3535 142.881Z" fill="#0097EC"/>
<path d="M44.9414 142.881H41.1467C40.4485 142.881 39.8818 142.314 39.8818 141.616V137.821C39.8818 137.123 40.4485 136.557 41.1467 136.557H44.9414C45.6396 136.557 46.2062 137.123 46.2062 137.821V141.616C46.2062 142.314 45.6396 142.881 44.9414 142.881Z" fill="#0097EC"/>
<path d="M52.5302 142.881H48.7356C48.0374 142.881 47.4707 142.314 47.4707 141.616V137.821C47.4707 137.123 48.0374 136.557 48.7356 136.557H52.5302C53.2284 136.557 53.7951 137.123 53.7951 137.821V141.616C53.7951 142.314 53.2284 142.881 52.5302 142.881Z" fill="#0097EC"/>
<path d="M52.5302 135.292H48.7356C48.0374 135.292 47.4707 134.725 47.4707 134.027V130.232C47.4707 129.534 48.0374 128.967 48.7356 128.967H52.5302C53.2284 128.967 53.7951 129.534 53.7951 130.232V134.027C53.7951 134.725 53.2284 135.292 52.5302 135.292Z" fill="#0097EC"/>
<path d="M60.1201 150.47H56.3254C55.6272 150.47 55.0605 149.904 55.0605 149.205V145.411C55.0605 144.713 55.6272 144.146 56.3254 144.146H60.1201C60.8183 144.146 61.385 144.713 61.385 145.411V149.205C61.385 149.904 60.8183 150.47 60.1201 150.47Z" fill="#0097EC"/>
</g>
<path d="M501 333L552.962 363V423L501 453L449.038 423V363L501 333Z" fill="white"/>
<path d="M535.991 389.76L504.237 358.008C502.41 356.179 499.444 356.179 497.614 358.008L491.021 364.602L499.385 372.966C501.329 372.31 503.558 372.75 505.107 374.3C506.664 375.859 507.101 378.107 506.429 380.057L514.49 388.119C516.44 387.447 518.69 387.882 520.248 389.442C522.425 391.618 522.425 395.145 520.248 397.323C518.07 399.5 514.543 399.5 512.365 397.323C510.727 395.684 510.323 393.278 511.152 391.261L503.634 383.743L503.633 403.527C504.164 403.79 504.665 404.141 505.107 404.581C507.284 406.757 507.284 410.284 505.107 412.464C502.93 414.641 499.401 414.641 497.226 412.464C495.05 410.284 495.05 406.757 497.226 404.581C497.764 404.044 498.387 403.638 499.051 403.365V383.397C498.387 383.126 497.765 382.722 497.226 382.181C495.577 380.534 495.18 378.113 496.025 376.088L487.781 367.842L466.008 389.613C464.178 391.444 464.178 394.41 466.008 396.239L497.762 427.992C499.59 429.821 502.555 429.821 504.386 427.992L535.991 396.387C537.82 394.557 537.82 391.589 535.991 389.76Z" fill="#0097EC"/>
<g filter="url(#filter5_d_223_312)">
<path d="M218.294 383.946L245.687 399.761V431.391L218.294 447.207L190.902 431.391V399.761L218.294 383.946Z" fill="white"/>
<path d="M218.294 412.464H213.385L213.047 408.665H218.294V404.955H218.281H208.992L209.081 405.951L209.992 416.174H218.294V412.464Z" fill="#0097EC"/>
<path d="M218.295 422.098L218.278 422.103L214.147 420.988L213.883 418.03H211.875H210.158L210.678 423.853L218.278 425.963L218.295 425.959V422.098Z" fill="#0097EC"/>
<path d="M218.281 412.464V416.174H222.849L222.42 420.986L218.281 422.102V425.962L225.887 423.853L225.943 423.227L226.814 413.46L226.905 412.464H225.905H218.281Z" fill="#0097EC"/>
<path d="M218.281 404.955V407.26V408.657V408.665H227.23H227.242L227.317 407.832L227.486 405.951L227.575 404.955H218.281Z" fill="#0097EC"/>
</g>
<g filter="url(#filter6_d_223_312)">
<path d="M321.494 71.4659L349.61 87.699V120.165L321.494 136.398L293.377 120.165V87.699L321.494 71.4659Z" fill="white"/>
<path d="M315.037 110.679C315.037 110.679 313.036 111.534 316.464 111.823C320.618 112.171 322.74 112.121 327.317 111.486C327.317 111.486 328.522 112.04 330.203 112.519C319.94 115.747 306.978 112.332 315.037 110.679ZM313.783 106.467C313.783 106.467 311.537 107.687 314.968 107.948C319.405 108.284 322.909 108.312 328.974 107.455C328.974 107.455 329.811 108.079 331.129 108.42C318.724 111.083 304.907 108.63 313.783 106.467Z" fill="#0097EC"/>
<path d="M324.352 99.3203C326.882 101.458 323.688 103.38 323.688 103.38C323.688 103.38 330.108 100.948 327.16 97.9002C324.406 95.0596 322.295 93.6488 333.726 88.7821C333.726 88.7824 315.782 92.0712 324.352 99.3203Z" fill="#0097EC"/>
<path d="M337.923 113.795C337.923 113.795 339.405 114.692 336.291 115.386C330.369 116.703 311.639 117.1 306.437 115.438C304.568 114.841 308.074 114.013 309.178 113.838C310.328 113.655 310.984 113.689 310.984 113.689C308.905 112.614 297.542 115.8 305.214 116.714C326.134 119.203 343.349 115.593 337.923 113.795ZM315.999 102.102C315.999 102.102 306.473 103.763 312.626 104.367C315.224 104.622 320.402 104.564 325.228 104.267C329.171 104.023 333.128 103.504 333.128 103.504C333.128 103.504 331.739 103.941 330.733 104.445C321.057 106.313 302.37 105.443 307.75 103.533C312.299 101.918 315.999 102.102 315.999 102.102ZM333.088 109.114C342.923 105.363 338.375 101.759 335.201 102.244C334.425 102.363 334.077 102.466 334.077 102.466C334.077 102.466 334.366 102.134 334.917 101.991C341.196 100.371 346.024 106.77 332.892 109.304C332.892 109.303 333.043 109.203 333.088 109.114Z" fill="#0097EC"/>
<path d="M327.312 80.742C327.312 80.742 332.758 84.7418 322.146 90.8905C313.636 95.8243 320.205 98.6368 322.143 101.852C317.175 98.5616 313.531 95.665 315.975 92.9693C319.565 89.0132 329.509 87.0944 327.312 80.742Z" fill="#0097EC"/>
<path d="M316.967 119.28C326.405 119.723 340.902 119.033 341.245 115.754C341.245 115.754 340.585 116.997 333.444 117.983C325.388 119.097 315.449 118.967 309.557 118.253C309.557 118.253 310.764 118.987 316.967 119.28Z" fill="#0097EC"/>
</g>
</g>
<defs>
<filter id="filter0_d_223_312" x="4.69922" y="0.50885" width="550.263" height="524.805" filterUnits="userSpaceOnUse" color-interpolation-filters="sRGB">
<feFlood flood-opacity="0" result="BackgroundImageFix"/>
<feColorMatrix in="SourceAlpha" type="matrix" values="0 0 0 0 0 0 0 0 0 0 0 0 0 0 0 0 0 0 127 0" result="hardAlpha"/>
<feOffset dy="1"/>
<feGaussianBlur stdDeviation="1"/>
<feComposite in2="hardAlpha" operator="out"/>
<feColorMatrix type="matrix" values="0 0 0 0 0 0 0 0 0 0 0 0 0 0 0 0 0 0 0.15 0"/>
<feBlend mode="normal" in2="BackgroundImageFix" result="effect1_dropShadow_223_312"/>
<feBlend mode="normal" in="SourceGraphic" in2="effect1_dropShadow_223_312" result="shape"/>
</filter>
<filter id="filter1_d_223_312" x="222.809" y="204.184" width="104.423" height="118.005" filterUnits="userSpaceOnUse" color-interpolation-filters="sRGB">
<feFlood flood-opacity="0" result="BackgroundImageFix"/>
<feColorMatrix in="SourceAlpha" type="matrix" values="0 0 0 0 0 0 0 0 0 0 0 0 0 0 0 0 0 0 127 0" result="hardAlpha"/>
<feOffset dy="1"/>
<feGaussianBlur stdDeviation="1"/>
<feComposite in2="hardAlpha" operator="out"/>
<feColorMatrix type="matrix" values="0 0 0 0 0 0 0 0 0 0 0 0 0 0 0 0 0 0 0.15 0"/>
<feBlend mode="normal" in2="BackgroundImageFix" result="effect1_dropShadow_223_312"/>
<feBlend mode="normal" in="SourceGraphic" in2="effect1_dropShadow_223_312" result="shape"/>
</filter>
<filter id="filter2_d_223_312" x="340.156" y="319.372" width="36.1357" height="41.1066" filterUnits="userSpaceOnUse" color-interpolation-filters="sRGB">
<feFlood flood-opacity="0" result="BackgroundImageFix"/>
<feColorMatrix in="SourceAlpha" type="matrix" values="0 0 0 0 0 0 0 0 0 0 0 0 0 0 0 0 0 0 127 0" result="hardAlpha"/>
<feOffset dy="1"/>
<feGaussianBlur stdDeviation="1"/>
<feComposite in2="hardAlpha" operator="out"/>
<feColorMatrix type="matrix" values="0 0 0 0 0 0 0 0 0 0 0 0 0 0 0 0 0 0 0.15 0"/>
<feBlend mode="normal" in2="BackgroundImageFix" result="effect1_dropShadow_223_312"/>
<feBlend mode="normal" in="SourceGraphic" in2="effect1_dropShadow_223_312" result="shape"/>
</filter>
<filter id="filter3_d_223_312" x="405.595" y="205.156" width="60.2373" height="68.9365" filterUnits="userSpaceOnUse" color-interpolation-filters="sRGB">
<feFlood flood-opacity="0" result="BackgroundImageFix"/>
<feColorMatrix in="SourceAlpha" type="matrix" values="0 0 0 0 0 0 0 0 0 0 0 0 0 0 0 0 0 0 127 0" result="hardAlpha"/>
<feOffset dy="1"/>
<feGaussianBlur stdDeviation="1"/>
<feComposite in2="hardAlpha" operator="out"/>
<feColorMatrix type="matrix" values="0 0 0 0 0 0 0 0 0 0 0 0 0 0 0 0 0 0 0.15 0"/>
<feBlend mode="normal" in2="BackgroundImageFix" result="effect1_dropShadow_223_312"/>
<feBlend mode="normal" in="SourceGraphic" in2="effect1_dropShadow_223_312" result="shape"/>
</filter>
<filter id="filter4_d_223_312" x="184.166" y="156.128" width="38.2412" height="43.5379" filterUnits="userSpaceOnUse" color-interpolation-filters="sRGB">
<feFlood flood-opacity="0" result="BackgroundImageFix"/>
<feColorMatrix in="SourceAlpha" type="matrix" values="0 0 0 0 0 0 0 0 0 0 0 0 0 0 0 0 0 0 127 0" result="hardAlpha"/>
<feOffset dy="1"/>
<feGaussianBlur stdDeviation="1"/>
<feComposite in2="hardAlpha" operator="out"/>
<feColorMatrix type="matrix" values="0 0 0 0 0 0 0 0 0 0 0 0 0 0 0 0 0 0 0.15 0"/>
<feBlend mode="normal" in2="BackgroundImageFix" result="effect1_dropShadow_223_312"/>
<feBlend mode="normal" in="SourceGraphic" in2="effect1_dropShadow_223_312" result="shape"/>
</filter>
<filter id="filter5_d_223_312" x="188.901" y="382.946" width="58.7861" height="67.2607" filterUnits="userSpaceOnUse" color-interpolation-filters="sRGB">
<feFlood flood-opacity="0" result="BackgroundImageFix"/>
<feColorMatrix in="SourceAlpha" type="matrix" values="0 0 0 0 0 0 0 0 0 0 0 0 0 0 0 0 0 0 127 0" result="hardAlpha"/>
<feOffset dy="1"/>
<feGaussianBlur stdDeviation="1"/>
<feComposite in2="hardAlpha" operator="out"/>
<feColorMatrix type="matrix" values="0 0 0 0 0 0 0 0 0 0 0 0 0 0 0 0 0 0 0.15 0"/>
<feBlend mode="normal" in2="BackgroundImageFix" result="effect1_dropShadow_223_312"/>
<feBlend mode="normal" in="SourceGraphic" in2="effect1_dropShadow_223_312" result="shape"/>
</filter>
<filter id="filter6_d_223_312" x="291.377" y="70.4659" width="60.2334" height="68.9326" filterUnits="userSpaceOnUse" color-interpolation-filters="sRGB">
<feFlood flood-opacity="0" result="BackgroundImageFix"/>
<feColorMatrix in="SourceAlpha" type="matrix" values="0 0 0 0 0 0 0 0 0 0 0 0 0 0 0 0 0 0 127 0" result="hardAlpha"/>
<feOffset dy="1"/>
<feGaussianBlur stdDeviation="1"/>
<feComposite in2="hardAlpha" operator="out"/>
<feColorMatrix type="matrix" values="0 0 0 0 0 0 0 0 0 0 0 0 0 0 0 0 0 0 0.15 0"/>
<feBlend mode="normal" in2="BackgroundImageFix" result="effect1_dropShadow_223_312"/>
<feBlend mode="normal" in="SourceGraphic" in2="effect1_dropShadow_223_312" result="shape"/>
</filter>
<linearGradient id="paint0_linear_223_312" x1="275.02" y1="204.207" x2="275.02" y2="320.165" gradientUnits="userSpaceOnUse">
<stop stop-color="#6FCBFF"/>
<stop offset="1" stop-color="#0E67ED"/>
</linearGradient>
<clipPath id="clip0_223_312">
<rect x="19.6436" y="122.643" width="60.7143" height="60.7143" fill="white"/>
</clipPath>
</defs>
</svg>
