<svg width="545" height="524" viewBox="0 0 545 524" fill="none" xmlns="http://www.w3.org/2000/svg">
<g filter="url(#filter0_d_649_397)">
<path d="M289.592 5.16292L501.145 126.859C505.635 129.443 508.406 134.225 508.415 139.405L508.798 383.464C508.807 388.644 506.05 393.435 501.568 396.032L290.4 518.394C285.917 520.991 280.39 521 275.9 518.417L64.3471 396.72C59.8567 394.137 57.0855 389.355 57.0773 384.174L56.6934 140.116C56.6852 134.936 59.4414 130.145 63.9236 127.547L275.092 5.18573C279.574 2.58851 285.102 2.57981 289.592 5.16292Z" fill="#F5F5FF" stroke="#E2E4E9"/>
<path d="M275.519 80.8624C280.16 78.183 285.878 78.183 290.519 80.8624L436.196 164.969C440.837 167.648 443.696 172.6 443.696 177.959V346.171C443.696 351.53 440.837 356.482 436.196 359.162L290.519 443.268C285.878 445.947 280.16 445.947 275.519 443.268L129.843 359.162C125.202 356.482 122.343 351.53 122.343 346.171V177.959C122.343 172.6 125.202 167.648 129.843 164.969L275.519 80.8624Z" fill="#EDF1FF"/>
<path d="M274.941 140.001C279.583 137.321 285.3 137.321 289.941 140.001L383.9 194.248C388.541 196.927 391.4 201.879 391.4 207.238V315.732C391.4 321.091 388.541 326.043 383.9 328.723L289.941 382.97C285.3 385.649 279.582 385.649 274.941 382.97L180.983 328.723C176.342 326.043 173.483 321.091 173.483 315.732V207.238C173.483 201.879 176.342 196.927 180.983 194.248L274.941 140.001Z" fill="#E8E9FF"/>
<g filter="url(#filter1_d_649_397)">
<path d="M275.52 208.416C280.161 205.737 285.879 205.737 290.52 208.416L325.731 228.745C330.372 231.425 333.231 236.377 333.231 241.736V282.394C333.231 287.753 330.372 292.705 325.731 295.385L290.52 315.714C285.879 318.393 280.161 318.393 275.52 315.714L240.309 295.385C235.668 292.705 232.809 287.753 232.809 282.394V241.736C232.809 236.377 235.668 231.425 240.309 228.745L275.52 208.416Z" fill="url(#paint0_linear_649_397)"/>
</g>
<g filter="url(#filter2_d_649_397)">
<path d="M362.974 322.705C364.985 321.544 367.463 321.544 369.474 322.705L378.542 327.94C380.553 329.101 381.792 331.247 381.792 333.569V344.04C381.792 346.362 380.553 348.508 378.542 349.669L369.474 354.904C367.463 356.065 364.985 356.065 362.974 354.904L353.906 349.669C351.895 348.508 350.656 346.362 350.656 344.039V333.569C350.656 331.247 351.895 329.101 353.906 327.94L362.974 322.705Z" fill="white" stroke="#E2E4E9"/>
<path d="M367.456 341.123C367.903 341.945 368.53 342.525 369.558 342.525C370.453 342.525 371.035 342.041 371.035 341.365C371.035 340.592 370.453 340.302 369.469 339.819L368.932 339.577C367.367 338.853 366.338 337.983 366.338 336.098C366.338 334.359 367.546 333.006 369.469 333.006C370.856 333.006 371.84 333.538 372.511 334.891L370.856 336.05C370.498 335.325 370.095 335.036 369.469 335.036C368.843 335.036 368.44 335.47 368.44 336.05C368.44 336.727 368.843 337.017 369.782 337.451L370.319 337.693C372.153 338.563 373.182 339.384 373.182 341.365C373.182 343.443 371.661 344.602 369.603 344.602C367.59 344.602 366.293 343.587 365.667 342.235L367.456 341.123ZM359.852 341.317C360.21 341.945 360.478 342.525 361.238 342.525C361.954 342.525 362.401 342.235 362.401 341.075V333.055H364.549V340.978C364.549 343.394 363.251 344.457 361.328 344.457C359.583 344.457 358.599 343.491 358.107 342.331L359.852 341.317Z" fill="#0657F2"/>
</g>
<path d="M122.021 264.519C124.032 263.358 126.51 263.358 128.521 264.519L142.61 272.653C144.621 273.814 145.86 275.96 145.86 278.282V294.55C145.86 296.873 144.621 299.018 142.61 300.18L128.521 308.314C126.51 309.475 124.032 309.475 122.021 308.314L107.932 300.18C105.921 299.018 104.682 296.873 104.682 294.55V278.282C104.682 275.96 105.921 273.814 107.932 272.653L122.021 264.519Z" fill="white" stroke="#E2E4E9"/>
<path d="M138.986 280.534C138.995 280.568 139 280.602 139 280.637V286.003C139 286.143 138.923 286.272 138.798 286.342L134.161 288.935V294.075C134.161 294.215 134.084 294.344 133.96 294.414L124.281 299.827C124.259 299.839 124.235 299.847 124.211 299.855C124.202 299.858 124.193 299.863 124.183 299.866C124.116 299.883 124.045 299.883 123.977 299.866C123.966 299.863 123.956 299.857 123.945 299.853C123.923 299.845 123.9 299.838 123.879 299.827L114.202 294.414C114.077 294.345 114 294.215 114 294.075V277.976C114 277.941 114.005 277.907 114.014 277.874C114.017 277.862 114.024 277.852 114.028 277.841C114.036 277.82 114.043 277.799 114.054 277.78C114.061 277.768 114.073 277.757 114.082 277.746C114.093 277.73 114.104 277.714 114.117 277.7C114.129 277.689 114.144 277.681 114.157 277.671C114.172 277.659 114.185 277.646 114.201 277.637H114.202L119.04 274.931C119.165 274.861 119.318 274.861 119.443 274.931L124.282 277.637H124.283C124.299 277.647 124.312 277.659 124.327 277.67C124.34 277.68 124.355 277.689 124.366 277.7C124.38 277.714 124.39 277.73 124.402 277.746C124.411 277.757 124.423 277.768 124.43 277.78C124.441 277.8 124.448 277.82 124.456 277.841C124.46 277.852 124.467 277.862 124.47 277.874C124.479 277.908 124.484 277.942 124.484 277.976V288.031L128.516 285.776V280.636C128.516 280.602 128.521 280.567 128.53 280.534C128.534 280.523 128.54 280.512 128.544 280.501C128.552 280.481 128.559 280.459 128.57 280.44C128.578 280.428 128.589 280.417 128.598 280.406C128.61 280.39 128.62 280.374 128.634 280.36C128.645 280.349 128.66 280.341 128.673 280.331C128.688 280.319 128.701 280.306 128.717 280.297H128.718L133.557 277.591C133.681 277.521 133.835 277.521 133.96 277.591L138.798 280.297C138.815 280.307 138.828 280.319 138.843 280.33C138.856 280.34 138.871 280.349 138.882 280.36C138.896 280.374 138.906 280.39 138.918 280.406C138.927 280.417 138.939 280.428 138.946 280.44C138.957 280.459 138.964 280.481 138.972 280.501C138.976 280.512 138.983 280.523 138.986 280.534ZM138.193 285.776V281.314L136.5 282.261L134.161 283.569V288.031L138.194 285.776H138.193ZM133.355 293.849V289.383L131.054 290.66L124.484 294.302V298.81L133.355 293.849ZM114.807 278.654V293.849L123.677 298.809V294.303L119.043 291.755L119.041 291.754L119.039 291.753C119.024 291.745 119.011 291.732 118.996 291.721C118.983 291.711 118.969 291.703 118.958 291.693L118.957 291.691C118.944 291.679 118.935 291.664 118.924 291.65C118.914 291.637 118.901 291.626 118.893 291.612L118.893 291.611C118.884 291.596 118.878 291.578 118.872 291.562C118.865 291.547 118.857 291.533 118.853 291.518V291.517C118.848 291.499 118.847 291.479 118.845 291.46C118.843 291.445 118.838 291.431 118.838 291.416V291.415V280.909L116.5 279.6L114.807 278.654V278.654ZM119.242 275.722L115.211 277.976L119.241 280.231L123.272 277.976L119.241 275.722H119.242ZM121.339 289.79L123.677 288.482V278.654L121.984 279.601L119.645 280.909V290.737L121.339 289.79ZM133.758 278.382L129.727 280.637L133.758 282.891L137.789 280.636L133.758 278.382ZM133.355 283.569L131.016 282.261L129.323 281.314V285.776L131.661 287.084L133.355 288.031V283.569ZM124.08 293.625L129.992 290.346L132.948 288.708L128.92 286.455L124.282 289.049L120.055 291.412L124.08 293.625Z" fill="#0657F2"/>
<g filter="url(#filter3_d_649_397)">
<path d="M437.963 209.931C441.521 207.877 445.905 207.877 449.463 209.931L465.582 219.237C469.14 221.291 471.332 225.088 471.332 229.197V247.808C471.332 251.917 469.14 255.713 465.582 257.768L449.463 267.074C445.905 269.128 441.521 269.128 437.963 267.074L421.845 257.768C418.287 255.713 416.095 251.917 416.095 247.808V229.196C416.095 225.088 418.287 221.291 421.845 219.237L437.963 209.931Z" fill="white" stroke="#E2E4E9"/>
<path d="M433.032 224.879H426L443.58 255.204L461.159 224.879H454.215H447.711L443.58 231.911L439.536 224.879H433.032Z" fill="#0657F2"/>
<path d="M461.159 224.879L443.58 255.204L426 224.879H433.032L443.58 243.074L454.215 224.879H461.159Z" fill="#0657F2"/>
<path d="M454.215 224.879L443.58 243.162L433.032 224.879H439.536L443.58 231.911L447.711 224.879H454.215Z" fill="#007BEC"/>
</g>
<g filter="url(#filter4_d_649_397)">
<path d="M208.036 159.461C210.047 158.3 212.525 158.3 214.536 159.461L224.657 165.304C226.668 166.465 227.907 168.611 227.907 170.933V182.619C227.907 184.941 226.668 187.087 224.657 188.248L214.536 194.091C212.525 195.252 210.047 195.252 208.036 194.091L197.916 188.248C195.905 187.087 194.666 184.941 194.666 182.619V170.933C194.666 168.611 195.905 166.465 197.916 165.304L208.036 159.461Z" fill="white" stroke="#E2E4E9"/>
<path d="M211.288 174.669H214.356L214.568 172.295H211.288V169.976H211.296H217.102L217.046 170.598L216.477 176.988H211.288V174.669Z" fill="#0657F2"/>
<path d="M211.302 180.69L211.291 180.693L208.709 179.996L208.544 178.147H207.289H206.217L206.541 181.787L211.291 183.106L211.302 183.103V180.69Z" fill="#0657F2"/>
<path d="M214.159 176.889L213.88 179.994L211.294 180.692V183.104L216.047 181.787L216.082 181.396L216.485 176.889H214.159Z" fill="#0657F2"/>
<path d="M211.295 169.976V171.416V172.289V172.295H205.702H205.695L205.648 171.773L205.542 170.598L205.487 169.976H211.295Z" fill="#0657F2"/>
<path d="M211.286 174.669V176.109V176.982V176.988H208.744H208.737L208.69 176.466L208.585 175.291L208.53 174.669H211.286Z" fill="#0657F2"/>
</g>
<path d="M67.25 73.7631L104.212 95.1029C108.698 97.6931 111.462 102.48 111.462 107.66V150.34C111.462 155.52 108.698 160.307 104.212 162.897L67.25 184.237C62.7637 186.827 57.2363 186.827 52.75 184.237L15.7885 162.897C11.3022 160.307 8.53848 155.52 8.53848 150.34V107.66C8.53848 102.48 11.3022 97.6931 15.7885 95.1029L52.75 73.7631C57.2363 71.173 62.7637 71.173 67.25 73.7631Z" fill="white" stroke="#E2E4E9"/>
<g clip-path="url(#clip0_649_397)">
<path d="M95.7113 122.696C95.514 122.542 93.6698 121.168 89.7795 121.168C88.7519 121.172 87.7274 121.259 86.7149 121.427C85.9621 116.337 81.829 113.944 81.6377 113.834L80.5934 113.239L79.9058 114.216C79.0452 115.531 78.2848 116.888 77.9159 118.41C77.2192 121.317 77.6427 124.046 79.1393 126.379C77.33 127.373 74.2473 127.461 73.6614 127.482H25.9733C24.7196 127.484 23.7026 128.484 23.695 129.72C23.6389 133.868 24.2308 138.148 25.6774 142.043C27.3303 146.32 29.7908 149.471 32.9904 151.399C36.5756 153.565 42.4011 154.804 49.0053 154.804C51.9879 154.813 54.9659 154.547 57.8984 154.008C61.9754 153.269 65.8991 151.864 69.5055 149.849C72.4774 148.151 75.1519 145.991 77.4272 143.452C81.2294 139.205 83.4941 134.476 85.1789 130.274C85.405 130.274 85.6312 130.274 85.8498 130.274C90.0132 130.274 92.5724 128.63 93.984 127.253C94.922 126.374 95.6551 125.304 96.1302 124.119L96.4292 123.256L95.7113 122.696Z" fill="#0657F2"/>
<path d="M35.7155 125.964H31.1619C30.324 125.964 29.644 125.284 29.644 124.446V119.893C29.644 119.055 30.324 118.375 31.1619 118.375H35.7155C36.5533 118.375 37.2333 119.055 37.2333 119.893V124.446C37.2333 125.284 36.5533 125.964 35.7155 125.964Z" fill="#0657F2"/>
<path d="M44.824 125.964H40.2704C39.4326 125.964 38.7526 125.284 38.7526 124.446V119.893C38.7526 119.055 39.4326 118.375 40.2704 118.375H44.824C45.6618 118.375 46.3418 119.055 46.3418 119.893V124.446C46.3418 125.284 45.6618 125.964 44.824 125.964Z" fill="#0657F2"/>
<path d="M53.9297 125.964H49.3761C48.5383 125.964 47.8583 125.284 47.8583 124.446V119.893C47.8583 119.055 48.5383 118.375 49.3761 118.375H53.9297C54.7676 118.375 55.4476 119.055 55.4476 119.893V124.446C55.4476 125.284 54.7676 125.964 53.9297 125.964Z" fill="#0657F2"/>
<path d="M63.0368 125.964H58.4832C57.6453 125.964 56.9653 125.284 56.9653 124.446V119.893C56.9653 119.055 57.6453 118.375 58.4832 118.375H63.0368C63.8746 118.375 64.5546 119.055 64.5546 119.893V124.446C64.5546 125.284 63.8746 125.964 63.0368 125.964Z" fill="#0657F2"/>
<path d="M44.824 116.857H40.2704C39.4326 116.857 38.7526 116.177 38.7526 115.339V110.786C38.7526 109.948 39.4326 109.268 40.2704 109.268H44.824C45.6618 109.268 46.3418 109.948 46.3418 110.786V115.339C46.3418 116.177 45.6618 116.857 44.824 116.857Z" fill="#0657F2"/>
<path d="M53.9297 116.857H49.3761C48.5383 116.857 47.8583 116.177 47.8583 115.339V110.786C47.8583 109.948 48.5383 109.268 49.3761 109.268H53.9297C54.7676 109.268 55.4476 109.948 55.4476 110.786V115.339C55.4476 116.177 54.7676 116.857 53.9297 116.857Z" fill="#0657F2"/>
<path d="M63.0368 116.857H58.4832C57.6453 116.857 56.9653 116.177 56.9653 115.339V110.786C56.9653 109.948 57.6453 109.268 58.4832 109.268H63.0368C63.8746 109.268 64.5546 109.948 64.5546 110.786V115.339C64.5546 116.177 63.8746 116.857 63.0368 116.857Z" fill="#0657F2"/>
<path d="M63.0368 107.75H58.4832C57.6453 107.75 56.9653 107.07 56.9653 106.232V101.679C56.9653 100.841 57.6453 100.161 58.4832 100.161H63.0368C63.8746 100.161 64.5546 100.841 64.5546 101.679V106.232C64.5546 107.07 63.8746 107.75 63.0368 107.75Z" fill="#0657F2"/>
<path d="M72.1438 125.964H67.5902C66.7524 125.964 66.0724 125.284 66.0724 124.446V119.893C66.0724 119.055 66.7524 118.375 67.5902 118.375H72.1438C72.9817 118.375 73.6617 119.055 73.6617 119.893V124.446C73.6617 125.284 72.9817 125.964 72.1438 125.964Z" fill="#0657F2"/>
</g>
<g filter="url(#filter5_d_649_397)">
<path d="M220.544 387.722C224.103 385.667 228.486 385.667 232.044 387.722L247.437 396.609C250.995 398.663 253.187 402.459 253.187 406.568V424.342C253.187 428.45 250.995 432.247 247.437 434.301L232.044 443.188C228.486 445.242 224.103 445.242 220.544 443.188L205.152 434.301C201.594 432.247 199.402 428.45 199.402 424.342V406.568C199.402 402.459 201.594 398.663 205.152 396.609L220.544 387.722Z" fill="white" stroke="#E2E4E9"/>
<path d="M226.017 412.772H220.203L219.802 408.273H226.017V403.879H226.001H215L215.105 405.059L216.184 417.166H226.017V412.772Z" fill="#0657F2"/>
<path d="M226.017 424.182L225.997 424.188L221.104 422.867L220.791 419.363H218.413H216.38L216.996 426.26L225.997 428.76L226.017 428.754V424.182Z" fill="#0657F2"/>
<path d="M226.001 412.772V417.166H231.411L230.902 422.864L226.001 424.186V428.758L235.009 426.26L235.074 425.518L236.106 413.952L236.214 412.772H235.03H226.001Z" fill="#0657F2"/>
<path d="M226.001 403.879V406.608V408.263V408.273H236.6H236.614L236.702 407.286L236.902 405.059L237.008 403.879H226.001Z" fill="#0657F2"/>
</g>
<g filter="url(#filter6_d_649_397)">
<path d="M323.744 75.2416C327.302 73.1873 331.686 73.1873 335.244 75.2416L351.36 84.5466C354.918 86.6008 357.11 90.3973 357.11 94.5059V113.116C357.11 117.224 354.918 121.021 351.36 123.075L335.244 132.38C331.686 134.434 327.302 134.434 323.744 132.38L307.627 123.075C304.069 121.021 301.877 117.224 301.877 113.116V94.5059C301.877 90.3973 304.069 86.6008 307.627 84.5466L323.744 75.2416Z" fill="white" stroke="#E2E4E9"/>
<path d="M323.037 110.558C323.037 110.558 321.036 111.413 324.464 111.702C328.618 112.05 330.74 112 335.317 111.365C335.317 111.365 336.522 111.918 338.203 112.398C327.94 115.625 314.978 112.211 323.037 110.558ZM321.783 106.346C321.783 106.346 319.537 107.566 322.968 107.827C327.405 108.163 330.909 108.191 336.974 107.334C336.974 107.334 337.811 107.958 339.129 108.299C326.724 110.962 312.907 108.508 321.783 106.346Z" fill="#0657F2"/>
<path d="M332.352 99.1989C334.882 101.337 331.688 103.259 331.688 103.259C331.688 103.259 338.108 100.826 335.161 97.7788C332.406 94.9383 330.295 93.5274 341.726 88.6608C341.726 88.6611 323.783 91.9498 332.352 99.1989Z" fill="#0657F2"/>
<path d="M345.924 113.674C345.924 113.674 347.406 114.571 344.291 115.264C338.369 116.581 319.64 116.978 314.438 115.317C312.569 114.72 316.075 113.891 317.178 113.717C318.328 113.534 318.985 113.567 318.985 113.567C316.905 112.492 305.542 115.679 313.214 116.593C334.135 119.082 351.349 115.472 345.924 113.674ZM324 101.981C324 101.981 314.473 103.642 320.626 104.246C323.225 104.501 328.402 104.442 333.228 104.145C337.171 103.902 341.128 103.383 341.128 103.383C341.128 103.383 339.739 103.82 338.733 104.324C329.057 106.192 310.37 105.322 315.751 103.412C320.299 101.797 324 101.981 324 101.981ZM341.089 108.992C350.924 105.242 346.376 101.638 343.202 102.123C342.426 102.242 342.078 102.345 342.078 102.345C342.078 102.345 342.367 102.012 342.918 101.869C349.196 100.25 354.025 106.648 340.892 109.183C340.892 109.182 341.043 109.082 341.089 108.992Z" fill="#0657F2"/>
<path d="M335.313 80.6206C335.313 80.6206 340.758 84.6205 330.146 90.7691C321.636 95.703 328.206 98.5155 330.143 101.73C325.175 98.4402 321.531 95.5436 323.976 92.848C327.565 88.8919 337.509 86.973 335.313 80.6206Z" fill="#0657F2"/>
<path d="M324.967 119.158C334.405 119.601 348.902 118.912 349.245 115.633C349.245 115.633 348.585 116.876 341.444 117.862C333.388 118.975 323.449 118.846 317.557 118.131C317.557 118.132 318.764 118.865 324.967 119.158Z" fill="#0657F2"/>
</g>
<path d="M457.25 383.763L485.551 400.103C490.038 402.693 492.801 407.48 492.801 412.66V445.34C492.801 450.52 490.038 455.307 485.551 457.897L457.25 474.237C452.764 476.827 447.236 476.827 442.75 474.237L414.449 457.897C409.962 455.307 407.199 450.52 407.199 445.34V412.66C407.199 407.48 409.962 402.693 414.449 400.103L442.75 383.763C447.236 381.173 452.764 381.173 457.25 383.763Z" fill="white" stroke="#E2E4E9"/>
<path d="M479.159 426.3L452.698 399.84C451.175 398.316 448.703 398.316 447.179 399.84L441.684 405.335L448.654 412.305C450.274 411.758 452.131 412.125 453.423 413.417C454.72 414.716 455.085 416.589 454.524 418.214L461.242 424.932C462.867 424.372 464.742 424.735 466.04 426.035C467.854 427.848 467.854 430.787 466.04 432.602C464.225 434.417 461.286 434.417 459.471 432.602C458.106 431.236 457.769 429.232 458.46 427.551L452.195 421.286L452.195 437.773C452.637 437.992 453.054 438.284 453.423 438.651C455.237 440.464 455.237 443.404 453.423 445.22C451.608 447.034 448.668 447.034 446.855 445.22C445.041 443.404 445.041 440.464 446.855 438.651C447.304 438.203 447.822 437.865 448.376 437.638V420.997C447.822 420.771 447.304 420.435 446.855 419.984C445.481 418.611 445.15 416.595 445.855 414.907L438.984 408.035L420.84 426.178C419.315 427.703 419.315 430.175 420.84 431.699L447.302 458.16C448.825 459.684 451.296 459.684 452.822 458.16L479.159 431.822C480.684 430.297 480.684 427.824 479.159 426.3Z" fill="#0657F2"/>
</g>
<defs>
<filter id="filter0_d_649_397" x="6.03845" y="1.73169" width="505.26" height="522.116" filterUnits="userSpaceOnUse" color-interpolation-filters="sRGB">
<feFlood flood-opacity="0" result="BackgroundImageFix"/>
<feColorMatrix in="SourceAlpha" type="matrix" values="0 0 0 0 0 0 0 0 0 0 0 0 0 0 0 0 0 0 127 0" result="hardAlpha"/>
<feOffset dy="1"/>
<feGaussianBlur stdDeviation="1"/>
<feComposite in2="hardAlpha" operator="out"/>
<feColorMatrix type="matrix" values="0 0 0 0 0 0 0 0 0 0 0 0 0 0 0 0 0 0 0.15 0"/>
<feBlend mode="normal" in2="BackgroundImageFix" result="effect1_dropShadow_649_397"/>
<feBlend mode="normal" in="SourceGraphic" in2="effect1_dropShadow_649_397" result="shape"/>
</filter>
<filter id="filter1_d_649_397" x="230.809" y="205.407" width="104.422" height="115.317" filterUnits="userSpaceOnUse" color-interpolation-filters="sRGB">
<feFlood flood-opacity="0" result="BackgroundImageFix"/>
<feColorMatrix in="SourceAlpha" type="matrix" values="0 0 0 0 0 0 0 0 0 0 0 0 0 0 0 0 0 0 127 0" result="hardAlpha"/>
<feOffset dy="1"/>
<feGaussianBlur stdDeviation="1"/>
<feComposite in2="hardAlpha" operator="out"/>
<feColorMatrix type="matrix" values="0 0 0 0 0 0 0 0 0 0 0 0 0 0 0 0 0 0 0.15 0"/>
<feBlend mode="normal" in2="BackgroundImageFix" result="effect1_dropShadow_649_397"/>
<feBlend mode="normal" in="SourceGraphic" in2="effect1_dropShadow_649_397" result="shape"/>
</filter>
<filter id="filter2_d_649_397" x="348.156" y="320.334" width="36.1353" height="38.9407" filterUnits="userSpaceOnUse" color-interpolation-filters="sRGB">
<feFlood flood-opacity="0" result="BackgroundImageFix"/>
<feColorMatrix in="SourceAlpha" type="matrix" values="0 0 0 0 0 0 0 0 0 0 0 0 0 0 0 0 0 0 127 0" result="hardAlpha"/>
<feOffset dy="1"/>
<feGaussianBlur stdDeviation="1"/>
<feComposite in2="hardAlpha" operator="out"/>
<feColorMatrix type="matrix" values="0 0 0 0 0 0 0 0 0 0 0 0 0 0 0 0 0 0 0.15 0"/>
<feBlend mode="normal" in2="BackgroundImageFix" result="effect1_dropShadow_649_397"/>
<feBlend mode="normal" in="SourceGraphic" in2="effect1_dropShadow_649_397" result="shape"/>
</filter>
<filter id="filter3_d_649_397" x="413.595" y="206.891" width="60.2368" height="65.2237" filterUnits="userSpaceOnUse" color-interpolation-filters="sRGB">
<feFlood flood-opacity="0" result="BackgroundImageFix"/>
<feColorMatrix in="SourceAlpha" type="matrix" values="0 0 0 0 0 0 0 0 0 0 0 0 0 0 0 0 0 0 127 0" result="hardAlpha"/>
<feOffset dy="1"/>
<feGaussianBlur stdDeviation="1"/>
<feComposite in2="hardAlpha" operator="out"/>
<feColorMatrix type="matrix" values="0 0 0 0 0 0 0 0 0 0 0 0 0 0 0 0 0 0 0.15 0"/>
<feBlend mode="normal" in2="BackgroundImageFix" result="effect1_dropShadow_649_397"/>
<feBlend mode="normal" in="SourceGraphic" in2="effect1_dropShadow_649_397" result="shape"/>
</filter>
<filter id="filter4_d_649_397" x="192.166" y="157.09" width="38.241" height="41.3721" filterUnits="userSpaceOnUse" color-interpolation-filters="sRGB">
<feFlood flood-opacity="0" result="BackgroundImageFix"/>
<feColorMatrix in="SourceAlpha" type="matrix" values="0 0 0 0 0 0 0 0 0 0 0 0 0 0 0 0 0 0 127 0" result="hardAlpha"/>
<feOffset dy="1"/>
<feGaussianBlur stdDeviation="1"/>
<feComposite in2="hardAlpha" operator="out"/>
<feColorMatrix type="matrix" values="0 0 0 0 0 0 0 0 0 0 0 0 0 0 0 0 0 0 0.15 0"/>
<feBlend mode="normal" in2="BackgroundImageFix" result="effect1_dropShadow_649_397"/>
<feBlend mode="normal" in="SourceGraphic" in2="effect1_dropShadow_649_397" result="shape"/>
</filter>
<filter id="filter5_d_649_397" x="196.902" y="384.681" width="58.7854" height="63.5479" filterUnits="userSpaceOnUse" color-interpolation-filters="sRGB">
<feFlood flood-opacity="0" result="BackgroundImageFix"/>
<feColorMatrix in="SourceAlpha" type="matrix" values="0 0 0 0 0 0 0 0 0 0 0 0 0 0 0 0 0 0 127 0" result="hardAlpha"/>
<feOffset dy="1"/>
<feGaussianBlur stdDeviation="1"/>
<feComposite in2="hardAlpha" operator="out"/>
<feColorMatrix type="matrix" values="0 0 0 0 0 0 0 0 0 0 0 0 0 0 0 0 0 0 0.15 0"/>
<feBlend mode="normal" in2="BackgroundImageFix" result="effect1_dropShadow_649_397"/>
<feBlend mode="normal" in="SourceGraphic" in2="effect1_dropShadow_649_397" result="shape"/>
</filter>
<filter id="filter6_d_649_397" x="299.377" y="72.2009" width="60.2334" height="65.2198" filterUnits="userSpaceOnUse" color-interpolation-filters="sRGB">
<feFlood flood-opacity="0" result="BackgroundImageFix"/>
<feColorMatrix in="SourceAlpha" type="matrix" values="0 0 0 0 0 0 0 0 0 0 0 0 0 0 0 0 0 0 127 0" result="hardAlpha"/>
<feOffset dy="1"/>
<feGaussianBlur stdDeviation="1"/>
<feComposite in2="hardAlpha" operator="out"/>
<feColorMatrix type="matrix" values="0 0 0 0 0 0 0 0 0 0 0 0 0 0 0 0 0 0 0.15 0"/>
<feBlend mode="normal" in2="BackgroundImageFix" result="effect1_dropShadow_649_397"/>
<feBlend mode="normal" in="SourceGraphic" in2="effect1_dropShadow_649_397" result="shape"/>
</filter>
<linearGradient id="paint0_linear_649_397" x1="283.02" y1="204.086" x2="283.02" y2="320.044" gradientUnits="userSpaceOnUse">
<stop stop-color="#0657F2"/>
<stop offset="1" stop-color="#0E67ED"/>
</linearGradient>
<clipPath id="clip0_649_397">
<rect x="23.5723" y="92.5715" width="72.8571" height="72.8571" fill="white"/>
</clipPath>
</defs>
</svg>
